<svg width="96" height="142" viewBox="0 0 96 142" fill="none" xmlns="http://www.w3.org/2000/svg">
<path d="M48 108.5V71.0001M62.0625 108.5V101.469C62.0625 92.9727 71.3028 84.9366 77.2969 79.2032C85.7461 71.126 90.1875 60.2745 90.1875 47.5626C90.1875 24.125 71.5166 5.37504 48 5.37504C42.4555 5.35958 36.9627 6.44023 31.8373 8.55487C26.7119 10.6695 22.055 13.7764 18.1345 17.697C14.2139 21.6175 11.107 26.2744 8.99234 31.3998C6.8777 36.5252 5.79705 42.0181 5.81251 47.5626C5.81251 59.8204 10.4443 71.4073 18.7031 79.2032C24.6651 84.8311 33.9375 92.8848 33.9375 101.469V108.5H62.0625ZM38.625 136.625H57.375H38.625ZM33.9375 122.563H62.0625H33.9375Z" stroke="#3D5A80" stroke-width="10" stroke-linecap="round" stroke-linejoin="round"/>
<path d="M59.1328 66.3125C59.1328 66.3125 52.8311 71 48 71C43.1689 71 36.8672 66.3125 36.8672 66.3125" stroke="#3D5A80" stroke-width="10" stroke-linecap="round" stroke-linejoin="round"/>
</svg>
