<svg width="154" height="153" viewBox="0 0 154 153" fill="none" xmlns="http://www.w3.org/2000/svg">
<g clip-path="url(#clip0)">
<path d="M131.342 55.0173C129.811 56.5286 127.74 57.3768 125.582 57.3768C123.424 57.3768 121.353 56.5286 119.822 55.0173L113.061 48.2966C111.539 46.7764 110.685 44.7196 110.685 42.5756C110.685 40.4316 111.539 38.3747 113.061 36.8545L128.367 21.6471C128.397 21.6179 128.419 21.582 128.431 21.5425C128.443 21.503 128.446 21.4611 128.438 21.4204C128.43 21.3798 128.413 21.3416 128.387 21.3093C128.361 21.2769 128.327 21.2513 128.289 21.2348C118.412 17.0332 105.601 19.1699 97.4682 27.1934C89.6839 34.8703 89.2418 46.3991 92.0932 56.4785C92.4984 57.9103 92.4974 59.4255 92.0903 60.8567C91.6831 62.2879 90.8858 63.5795 89.7862 64.5887L37.7511 112.628C36.5091 113.733 35.507 115.078 34.806 116.581C34.105 118.084 33.7199 119.713 33.6742 121.368C33.6285 123.024 33.9231 124.672 34.5401 126.21C35.1571 127.749 36.0835 129.147 37.2626 130.317C38.4418 131.488 39.8489 132.408 41.398 133.02C42.947 133.632 44.6055 133.924 46.272 133.878C47.9384 133.832 49.5779 133.448 51.0901 132.751C52.6024 132.054 53.9556 131.057 55.067 129.823L103.839 78.036C104.844 76.9616 106.124 76.1797 107.543 75.7743C108.962 75.3688 110.465 75.3553 111.891 75.735C121.955 78.4066 133.393 77.9045 141.087 70.3741C149.356 62.2818 151.14 47.9799 147.133 39.795C147.115 39.7591 147.089 39.7279 147.056 39.7042C147.023 39.6804 146.985 39.6647 146.946 39.6583C146.906 39.6518 146.865 39.6549 146.826 39.6673C146.788 39.6796 146.753 39.7008 146.724 39.7292L131.342 55.0173Z" stroke="#3D5A80" stroke-width="10" stroke-miterlimit="10" stroke-linecap="round"/>
<path d="M95.3687 87.0487C107.686 98.434 122.626 111.932 128.455 116.755C128.891 117.112 129.246 117.556 129.499 118.058C129.752 118.56 129.897 119.109 129.924 119.669C129.95 120.23 129.858 120.79 129.654 121.313C129.45 121.837 129.138 122.312 128.737 122.708L118.697 132.68C118.289 133.076 117.803 133.386 117.27 133.591C116.737 133.795 116.168 133.889 115.597 133.868C115.026 133.847 114.465 133.71 113.949 133.467C113.433 133.224 112.972 132.879 112.594 132.453C107.623 126.721 94.2197 112.398 82.7359 100.478M67.375 84.8672C62.1174 79.7871 59.7081 77.4234 58.0508 75.8157C57.2214 74.9971 56.6769 73.9366 56.4967 72.7889C56.3166 71.6413 56.5101 70.4664 57.0492 69.4357C57.3334 68.9289 57.6878 68.4642 58.1019 68.0551L62.8182 63.486C63.3062 63.0003 63.8803 62.6083 64.5116 62.3296C65.5081 61.8913 66.6141 61.7601 67.6865 61.953C68.7589 62.1458 69.7485 62.6538 70.5272 63.4113C72.1664 64.9921 75.1683 67.8938 80.5763 73.1292L67.375 84.8672Z" stroke="#3D5A80" stroke-width="10" stroke-linecap="round" stroke-linejoin="round"/>
<path d="M5.21555 57.8233L14.0615 49.2349C14.1966 49.103 14.357 48.9993 14.5332 48.93C14.7094 48.8607 14.8978 48.8272 15.0872 48.8315C15.469 48.8274 15.8373 48.9723 16.1129 49.2349V49.2349C16.4332 49.5498 16.8215 49.7879 17.2484 49.9314C17.6752 50.0748 18.1293 50.1197 18.5763 50.0627C19.7282 49.9372 20.9584 49.5846 21.7555 48.8315C23.5602 47.0983 21.4728 43.6827 23.0609 41.4983C24.8768 39.107 26.8652 36.8498 29.0104 34.7448C30.815 32.9877 37.9857 26.2819 50.035 21.4619C53.8883 19.9144 58.0062 19.1209 62.1625 19.125C68.9571 19.125 74.1937 22.1133 76.0766 23.8077C77.2067 24.876 78.2413 26.0398 79.1686 27.286C78.263 26.9544 77.3379 26.678 76.3984 26.4583C74.4225 26.0418 72.3958 25.915 70.3828 26.0817C66.3734 26.4075 61.5368 28.2512 58.9531 30.2653C54.7723 33.5524 52.9766 37.9512 52.6939 43.6259C52.4893 47.8454 53.512 50.23 63.5521 60.2079C63.8952 60.5885 64.0763 61.0865 64.0573 61.5971C64.0382 62.1076 63.8204 62.5909 63.4498 62.9452L57.9696 68.3241C57.5876 68.6962 57.0753 68.9069 56.5403 68.9119C56.0053 68.9169 55.4891 68.7159 55.1001 68.351C48.501 61.7947 44.0765 58.4628 41.565 56.9477C39.0534 55.4326 37.0322 55.0053 36.0607 54.9007C34.1526 54.7129 32.2329 55.1169 30.5654 56.0572C30.2728 56.2169 30.0053 56.4182 29.7713 56.6548C29.3808 57.0559 29.0741 57.5298 28.8689 58.0492C28.6637 58.5687 28.5641 59.1233 28.5759 59.6812C28.5876 60.2391 28.7105 60.7892 28.9373 61.2996C29.1642 61.8101 29.4906 62.2708 29.8977 62.6553L30.412 63.1334C30.5455 63.2624 30.6517 63.4166 30.7241 63.587C30.7966 63.7574 30.8339 63.9405 30.8339 64.1255C30.8339 64.3105 30.7966 64.4937 30.7241 64.6641C30.6517 64.8345 30.5455 64.9887 30.412 65.1177L21.575 73.691C21.4412 73.8257 21.2813 73.9322 21.1051 74.004C20.9289 74.0759 20.7399 74.1118 20.5494 74.1094C20.1676 74.1132 19.7995 73.9684 19.5237 73.706L5.21555 59.8314C4.95659 59.5604 4.81221 59.201 4.81221 58.8273C4.81221 58.4537 4.95659 58.0942 5.21555 57.8233V57.8233Z" stroke="#3D5A80" stroke-width="10" stroke-linecap="round" stroke-linejoin="round"/>
</g>
<defs>
<clipPath id="clip0">
<rect width="154" height="153" fill="white"/>
</clipPath>
</defs>
</svg>
