<svg width="141" height="148" viewBox="0 0 141 148" fill="none" xmlns="http://www.w3.org/2000/svg">
<path d="M120.885 15.2998H20.1154C11.7674 15.2998 5 22.0547 5 30.3873V120.913C5 129.245 11.7674 136 20.1154 136H120.885C129.233 136 136 129.245 136 120.913V30.3873C136 22.0547 129.233 15.2998 120.885 15.2998Z" stroke="#3D5A80" stroke-width="10" stroke-linejoin="round"/>
<path d="M110.894 5V15.2998M30.1057 5V15.2998V5Z" stroke="#3D5A80" stroke-width="10" stroke-linecap="round" stroke-linejoin="round"/>
<path d="M136 40.4054H5" stroke="#3D5A80" stroke-width="10" stroke-linecap="round" stroke-linejoin="round"/>
<path d="M50.2716 65.0139H112.147M50.2716 86.8889H112.147M50.2716 108.764H112.147" stroke="#3D5A80" stroke-width="13" stroke-linecap="round" stroke-linejoin="round"/>
<path d="M33.0841 68.1389C34.9826 68.1389 36.5216 66.7398 36.5216 65.0139C36.5216 63.288 34.9826 61.8889 33.0841 61.8889C31.1856 61.8889 29.6466 63.288 29.6466 65.0139C29.6466 66.7398 31.1856 68.1389 33.0841 68.1389Z" stroke="#3D5A80" stroke-width="17" stroke-linecap="round" stroke-linejoin="round"/>
<path d="M33.0841 90.0139C34.9826 90.0139 36.5216 88.6148 36.5216 86.8889C36.5216 85.163 34.9826 83.7639 33.0841 83.7639C31.1856 83.7639 29.6466 85.163 29.6466 86.8889C29.6466 88.6148 31.1856 90.0139 33.0841 90.0139Z" stroke="#3D5A80" stroke-width="17" stroke-linecap="round" stroke-linejoin="round"/>
<path d="M33.0841 111.889C34.9826 111.889 36.5216 110.49 36.5216 108.764C36.5216 107.038 34.9826 105.639 33.0841 105.639C31.1856 105.639 29.6466 107.038 29.6466 108.764C29.6466 110.49 31.1856 111.889 33.0841 111.889Z" stroke="#3D5A80" stroke-width="17" stroke-linecap="round" stroke-linejoin="round"/>
</svg>
