<svg width="98" height="138" viewBox="0 0 98 138" fill="none" xmlns="http://www.w3.org/2000/svg">
<path d="M15.3656 132.375H82.6345C88.6673 132.375 93.4661 127.412 92.8171 121.693C88.6277 84.8438 63.625 85.4531 63.625 69C63.625 52.5469 88.9476 53.4609 92.8141 16.3073C93.4235 10.5853 88.6673 5.625 82.6345 5.625H15.3656C9.33276 5.625 4.58877 10.5853 5.18596 16.3073C9.05244 53.4609 34.375 52.2422 34.375 69C34.375 85.7578 9.37236 84.8438 5.18596 121.693C4.53393 127.412 9.33276 132.375 15.3656 132.375Z" stroke="#3D5A80" stroke-width="10" stroke-linecap="round" stroke-linejoin="round"/>
<path d="M75.5992 122.625H22.5318C17.7786 122.625 16.438 117.141 19.7713 113.74C27.8394 105.562 44.125 99.7064 44.125 90.3281V59.25C44.125 53.202 32.5468 48.5859 25.3836 38.775C24.2015 37.1571 24.3203 34.875 27.3245 34.875H70.8125C73.375 34.875 73.9295 37.1388 72.7625 38.7598C65.7029 48.5859 53.875 53.1715 53.875 59.25V90.3281C53.875 99.6302 70.8491 104.648 78.3718 113.749C81.4035 117.418 80.3431 122.625 75.5992 122.625V122.625Z" fill="#3D5A80"/>
</svg>
